<?xml version="1.0" encoding="UTF-8"?><svg id="art" xmlns="http://www.w3.org/2000/svg" viewBox="0 0 444.92 73.9"><defs><style>.cls-1{fill:#ec2b2c;}.cls-1,.cls-2{stroke-width:0px;}.cls-2{fill:#21201e;}</style></defs><path class="cls-1" d="M141.64,61.94c-4.67,0-7.97-1.1-7.97-6.73v-24.17s-15.52,0-15.52,0v21.76c-8.53,5.43-17.53,9.14-25.43,9.14-12.22,0-17.58-7.83-17.58-19.5s5.63-19.23,17.03-19.23c2.33,0,4.67.27,6.87.82v7.01h12.91v-15.52c-4.94-1.79-12.91-3.98-21.42-3.98-18.68,0-31.45,10.71-31.45,31.45,0,5.27.82,9.9,2.38,13.87h-8.58v-23.48c0-16.21-9.06-21.84-25-21.84-8.51,0-17.58,1.65-22.93,3.3v11.54c4.53-1.37,12.5-3.02,19.64-3.02,9.89,0,12.77,3.16,12.77,10.3v3.71h-9.75c-15.38,0-27.6,4.12-27.6,18.4,0,11.67,8.24,18.13,19.36,18.13,8.93,0,14.97-4.26,18.81-8.24v6.73h22.46s4.49-8.98,4.49-8.98c5.33,6.89,13.97,10.49,25.12,10.49,0,0,15.43.55,28.87-10.03,1.87,6.27,6.81,10.03,17.58,10.03,5.77,0,10.57-1.1,14.15-2.06v-11.4c-2.34.82-5.63,1.51-9.2,1.51ZM37.35,56.45c-3.16,3.3-7.55,6.45-13.32,6.45-6.73,0-8.51-4.12-8.51-7.83,0-6.04,4.67-8.1,12.77-8.1h9.06v9.48Z"/><polygon class="cls-1" points="149.2 15.52 133.68 15.52 133.68 0 118.16 0 118.16 15.52 133.68 15.52 133.68 31.05 149.2 31.05 149.2 15.52"/><path class="cls-2" d="M172.49,64.22h8.76V8.16h-8.76V0h18.96v27.98c5.4-4.68,12-8.28,19.56-8.28,9.24,0,15.12,5.52,15.12,16.32v28.2h8.76v8.16h-27.72v-8.16h8.76v-27.12c0-5.64-2.04-9.12-8.04-9.12s-12,3.72-16.44,7.44v28.8h8.76v8.16h-27.72v-8.16Z"/><path class="cls-2" d="M235.42,46.7c0-16.32,10.08-27,26.16-27s26.16,10.68,26.16,27-10.08,27-26.16,27-26.16-10.56-26.16-27ZM277.18,46.7c0-11.16-5.4-19.08-15.6-19.08s-15.6,7.92-15.6,19.08,5.4,19.08,15.6,19.08,15.6-7.92,15.6-19.08Z"/><path class="cls-2" d="M296.98,57.38v-28.2h-8.76v-8.16h18.96v35.28c0,5.64,2.04,9.12,8.04,9.12s11.88-3.48,16.44-7.32v-28.92h-9.36v-8.16h19.68v43.2h8.64v8.16h-18.72v-7.08c-5.4,4.8-12.12,8.4-19.8,8.4-9.24,0-15.12-5.52-15.12-16.32Z"/><path class="cls-2" d="M353.97,70.82v-13.68h8.28v7.32c3,.84,7.44,1.56,11.04,1.56,6.72,0,10.92-2.4,10.92-6.6,0-11.28-29.52-5.52-29.52-24.6,0-9,6.6-15.12,19.8-15.12,6.48,0,13.32,1.44,17.28,2.76v13.56h-8.4v-7.68c-2.52-.6-6.24-.96-8.88-.96-6.96,0-9.96,2.76-9.96,6.48,0,11.64,29.52,5.28,29.52,24.84,0,8.4-5.64,15-20.52,15-6.96,0-14.88-1.44-19.56-2.88Z"/><path class="cls-2" d="M397.64,46.82c0-15.96,9.12-27.12,24.48-27.12s22.8,12.48,22.8,25.44c0,1.44,0,3-.24,4.56h-36.72c.96,10.08,6.72,15.96,17.28,15.96,6.6,0,12.36-2.4,16.92-4.92v8.16c-4.32,2.52-10.32,4.8-18.36,4.8-17.16,0-26.16-11.16-26.16-26.88ZM407.96,42.26h27.36c-.48-7.32-3.72-14.88-13.08-14.88-8.76,0-13.32,6.6-14.28,14.88Z"/></svg>