<?xml version="1.0" encoding="UTF-8"?>
<svg id="Layer_1" xmlns="http://www.w3.org/2000/svg" version="1.1" viewBox="0 0 676.29156 72">
  <!-- Generator: Adobe Illustrator 29.1.0, SVG Export Plug-In . SVG Version: 2.1.0 Build 142)  -->
  <defs>
    <style>
      .st0 {
        fill: #fff;
      }
    </style>
  </defs>
  <path class="st0" d="M56.46932,33.42859C68.40116,20.26221,57.08529,0,37.44035,0H0v72h.04146L38.22149,13.49378l-24.11468,58.50622h22.2015c25.50885,0,36.61777-26.43426,20.16102-38.57141"/>
  <g>
    <path class="st0" d="M96.34784,16.43364h33.50471c11.20325,0,14.30643,4.31296,14.30643,8.94175v.73642c0,5.10188-4.31296,7.04807-6.20638,7.62643,2.68234.68391,8.41534,2.94567,8.41534,9.83595v.73615c0,6.15387-3.52403,11.25601-16.19984,11.25601h-33.82028V16.43364h.00002ZM108.60307,24.69148v6.36442h19.14551c3.41875,0,4.26045-1.57784,4.26045-3.15596v-.10528c0-1.63035-.84171-3.10318-4.26045-3.10318h-19.14551ZM108.60307,39.36625v7.67921h20.19749c4.0499,0,4.83881-2.26149,4.83881-3.83987v-.21002c0-1.6834-.78893-3.62931-4.83881-3.62931h-20.1975,0Z"/>
    <path class="st0" d="M173.10661,56.14499c-20.98642,0-24.40517-13.35999-24.40517-20.72362v-18.98772h12.30772v18.25158c0,5.04964,2.26176,11.30798,12.93887,11.30798,10.51961,0,12.83386-6.25833,12.83386-11.30798v-18.25158h12.25523v18.98772c0,7.36364-3.99739,20.72362-24.03709,20.72362h-1.89343Z"/>
    <path class="st0" d="M216.20828,55.56636h-12.25523V16.43364h12.25523v39.13271h0Z"/>
    <path class="st0" d="M233.74483,16.43364v29.40204h27.19252v9.73067h-39.44827V16.43364h12.25577-.00002Z"/>
    <path class="st0" d="M263.70709,16.43364h25.93024c22.66956,0,27.61365,9.73067,27.61365,18.51437v1.57812c0,8.41589-4.68103,19.04023-27.56113,19.04023h-25.98276V16.43364ZM275.96179,46.15125h12.72885c13.88611,0,15.72647-6.10136,15.72647-10.09875v-.31557c0-3.99739-1.63034-10.04597-15.72647-10.04597h-12.72885v20.46029Z"/>
    <path class="st0" d="M349.91858,55.56636h-12.25522V16.43364h12.25522v39.13271h0Z"/>
    <path class="st0" d="M368.87491,16.43364l24.98407,24.61546v-24.61546h12.09717v39.13271h-12.09717l-26.56192-25.93051v25.93051h-12.09772V16.43364h13.67557Z"/>
    <path class="st0" d="M443.46286,25.69096h-16.83124v-9.25732h46.07523v9.25732h-16.88376v29.87539h-12.36023v-29.87539Z"/>
    <path class="st0" d="M499.67636,56.14499c-20.98669,0-24.40543-13.35999-24.40543-20.72362v-18.98772h12.30774v18.25158c0,5.04964,2.26202,11.30798,12.93942,11.30798,10.51932,0,12.83383-6.25833,12.83383-11.30798v-18.25158h12.25525v18.98772c0,7.36364-3.99738,20.72362-24.03738,20.72362h-1.89343Z"/>
    <path class="st0" d="M542.68359,16.43364v29.40204h27.19305v9.73067h-39.4483V16.43364h12.25525Z"/>
    <path class="st0" d="M594.48401,56.25c-20.51306,0-22.88013-8.83647-22.88013-13.99058v-.57917h12.78137c.15808,2.36758,1.52533,6.20691,11.62408,6.20691h.73615c10.30933,0,11.46655-2.05147,11.46655-4.15544,0-2.26149-1.20978-3.68182-10.25677-3.94488l-6.73248-.15751c-14.6217-.42058-19.09271-5.36494-19.09271-11.4663v-.47335c0-5.8383,3.47125-11.93966,21.30225-11.93966h3.62878c18.51465,0,22.7226,6.46943,22.7226,12.36051v.52586h-12.72882c-.26306-1.47284-1.0517-4.6813-11.30853-4.6813h-.84167c-9.46759,0-10.15125,1.68312-10.15125,3.36625s1.05225,3.20846,9.04706,3.36625l6.57446.10528c14.72729.26306,20.67114,3.8396,20.67114,11.62409v.73669c0,6.46943-3.26123,13.09638-22.93262,13.09638h-3.62933l-.00012-.00002Z"/>
    <path class="st0" d="M659.40784,48.41274h-23.72125l-3.52429,7.15362h-12.46576l19.77692-39.13271h15.88452l20.93365,39.13271h-13.2019l-3.68182-7.15362h-.00006ZM647.31012,24.90204l-7.25812,14.67477h14.83228l-7.57422-14.67477h.00006Z"/>
  </g>
</svg>