<?xml version="1.0" encoding="UTF-8"?>
<svg id="Layer_1" data-name="Layer 1" xmlns="http://www.w3.org/2000/svg" viewBox="0 0 607.84411 124.54904">
  <defs>
    <style>
      .cls-1 {
        fill: #21211d;
      }
    </style>
  </defs>
  <g>
    <g>
      <path class="cls-1" d="M186.78426,87.18418h-27.38042l5.79947-7.98255c2.83001,1.11959,5.9026,1.7551,9.12604,1.7551,13.7354,0,24.90981-11.17509,24.90981-24.90981,0-6.01257-2.14178-11.53423-5.70199-15.84297l7.79268-10.72641-10.07636-7.31942-7.79825,10.73401c-2.82992-1.1195-5.90251-1.75502-9.12588-1.75502-13.7354,0-24.90981,11.17509-24.90981,24.90981,0,6.01249,2.1417,11.53415,5.70191,15.84289l-11.11165,15.29437v12.4549h42.77446c3.43402,0,6.22745,2.79343,6.22745,6.22745v6.22745h12.4549v-6.22745c0-10.30205-8.38098-18.68236-18.68236-18.68236ZM174.32935,43.59201c6.86736,0,12.4549,5.58687,12.4549,12.4549s-5.58754,12.4549-12.4549,12.4549-12.4549-5.58687-12.4549-12.4549,5.58754-12.4549,12.4549-12.4549Z"/>
      <path class="cls-1" d="M298.87839,37.38162c-5.2077-3.91834-11.67808-6.24451-18.68236-6.24451-17.16941,0-31.13726,13.96852-31.13726,31.13726s13.96784,31.13726,31.13726,31.13726c7.00428,0,13.47465-2.32617,18.68236-6.24451v6.24451h12.4549V31.13711h-12.4549v6.24451ZM280.19604,80.95672c-10.30138,0-18.68236-8.3803-18.68236-18.68236s8.38098-18.68236,18.68236-18.68236,18.68236,8.3803,18.68236,18.68236-8.38098,18.68236-18.68236,18.68236Z"/>
      <path class="cls-1" d="M249.05878,31.13711h-6.22745c-7.00428,0-13.47465,2.32617-18.68236,6.24451v-6.24451h-12.4549v62.27452h12.4549v-31.13726c0-10.30205,8.38098-18.68236,18.68236-18.68236h6.22745v-12.4549Z"/>
      <rect class="cls-1" x="392.29017" y="31.13711" width="12.4549" height="62.27452"/>
      <path class="cls-1" d="M367.38036,37.38162c-5.2077-3.91834-11.67808-6.24451-18.68236-6.24451-17.16941,0-31.13726,13.96852-31.13726,31.13726s13.96784,31.13726,31.13726,31.13726c7.00428,0,13.47465-2.32617,18.68236-6.24451v6.24451h12.4549V6.2273h-12.4549v31.15432ZM348.69801,80.95672c-10.30138,0-18.68236-8.3803-18.68236-18.68236s8.38098-18.68236,18.68236-18.68236,18.68236,8.3803,18.68236,18.68236-8.38098,18.68236-18.68236,18.68236Z"/>
      <rect class="cls-1" x="392.29017" y="6.2273" width="12.4549" height="12.4549"/>
      <path class="cls-1" d="M442.10978,31.13711c-17.16941,0-31.13726,13.96852-31.13726,31.13726s13.96784,31.13726,31.13726,31.13726c12.74217,0,23.71488-7.69689,28.52956-18.68236h-14.64399c-3.42278,3.812-8.37135,6.22745-13.88558,6.22745-8.1155,0-15.01952-5.21041-17.59242-12.4549h48.10303c.41025-2.01281.62665-4.0953.62665-6.22745,0-17.16874-13.96784-31.13726-31.13726-31.13726ZM424.51737,56.04692c2.5729-7.2445,9.47691-12.4549,17.59242-12.4549s15.01952,5.21041,17.59242,12.4549h-35.18483Z"/>
      <path class="cls-1" d="M507.49803,31.13711c-5.75757,0-11.11233,1.74919-15.56863,4.7385v-4.7385h-12.4549v62.27452h12.4549v-34.25099c0-8.58437,6.98426-15.56863,15.56863-15.56863s15.56863,6.98426,15.56863,15.56863v34.25099h12.4549v-34.25099c0-15.45241-12.57113-28.02353-28.02353-28.02353Z"/>
      <path class="cls-1" d="M576,43.59201v-12.4549h-18.68236V6.2273h-12.4549v62.27452c0,13.73472,11.17441,24.90981,24.90981,24.90981h6.22745v-12.4549h-6.22745c-6.86736,0-12.4549-5.58687-12.4549-12.4549v-24.90981h18.68236Z"/>
    </g>
    <g>
      <g>
        <path class="cls-1" d="M49.7375,88.72224l-9.56851,16.57321c1.1103.47066,2.24308.89829,3.39537,1.2835l6.43762-17.68715c-.08956-.05451-.17553-.11419-.26448-.16956Z"/>
        <path class="cls-1" d="M45.64292,85.67996l-13.0418,15.54263c1.07017.7098,2.1707,1.37721,3.30029,1.99871l9.99878-17.31849c-.0861-.07391-.17199-.14803-.25728-.22286Z"/>
        <path class="cls-1" d="M54.37024,91.09242l-6.10921,16.78485c1.09792.2426,2.21003.4469,3.33548.61074l3.04822-17.28734c-.09135-.03643-.18358-.071-.27449-.10825Z"/>
        <path class="cls-1" d="M42.14733,82.08953l-16.30723,13.68339c.97436.94675,1.98924,1.85174,3.04299,2.71125l13.51441-16.10583c-.08233-.09724-.16901-.19057-.25018-.28882Z"/>
        <path class="cls-1" d="M59.4433,92.67577l-2.86823,16.26652c.59991.02283,1.20178.03811,1.80729.03811.44796,0,.89406-.00779,1.33898-.02032v-16.22015c-.09336-.01966-.18503-.04368-.27805-.06417Z"/>
        <path class="cls-1" d="M37.18634,73.65901l-21.40425,7.79049c.61417,1.36234,1.29229,2.68964,2.02957,3.97871l19.56199-11.29414c-.0648-.15716-.12501-.31661-.1873-.47506Z"/>
        <path class="cls-1" d="M39.32083,78.04386l-19.1673,11.06626c.8219,1.16868,1.69659,2.29722,2.61956,3.38373l16.76698-14.06916c-.07599-.12503-.14496-.25464-.21924-.38083Z"/>
        <path class="cls-1" d="M75.8905,91.85471l4.27383,11.74225c.71687-.37867,1.42282-.77499,2.11699-1.18927l-6.14147-10.63737c-.08315.02808-.16589.05696-.24936.08439Z"/>
        <path class="cls-1" d="M90.2499,82.00916l7.1252,5.97877c.32926-.49829.65173-1.00149.96214-1.5129l-7.9774-4.60576c-.03735.04606-.07232.09405-.10994.1399Z"/>
        <path class="cls-1" d="M95.95558,71.35239l7.61441,2.77141c.12205-.46672.23766-.93601.34554-1.4083l-7.94902-1.40159c-.00388.01272-.00705.02576-.01093.03848Z"/>
        <path class="cls-1" d="M66.16668,31.13726c.06916,0,.13718.00478.20623.00523l2.53602-14.3825c-1.7001-.3916-3.43665-.6871-5.20208-.88747v15.37045c.8125-.06356,1.63102-.10571,2.45984-.10571Z"/>
        <path class="cls-1" d="M97.50805,65.38833l7.37117,1.29971c.04046-.43154.07459-.86484.10323-1.29971h-7.47441Z"/>
        <path class="cls-1" d="M86.04285,86.24094l6.55904,7.81678c.45139-.48578.89285-.98083,1.32349-1.48553l-7.71661-6.475c-.05598.04714-.10959.09698-.16592.14375Z"/>
        <path class="cls-1" d="M35.77377,69.03395l-22.84291,4.02772c.35776,1.51312.7892,2.99754,1.29015,4.44976l21.6875-7.89359c-.04688-.19387-.09151-.38859-.13475-.58389Z"/>
        <path class="cls-1" d="M70.36951,93.12151l2.3977,13.59808c.84742-.27409,1.68463-.57067,2.5101-.89108l-4.63748-12.74134c-.08967.01291-.18041.0222-.27032.03434Z"/>
        <path class="cls-1" d="M81.18673,89.55122l5.63945,9.76785c.58231-.44777,1.15364-.9089,1.71377-1.38307l-7.139-8.50794c-.07185.04038-.14203.0833-.21422.12316Z"/>
        <path class="cls-1" d="M64.82769,93.37791v15.15776c.9637-.13306,1.91873-.29315,2.86274-.48406l-2.58614-14.6667c-.09204-.00309-.18479-.00311-.2766-.00699Z"/>
        <path class="cls-1" d="M93.61185,76.98749l7.44289,4.29714c.21876-.49035.42842-.9856.63061-1.48471l-8.01908-2.9187c-.01869.03511-.03563.07127-.05443.10627Z"/>
        <path class="cls-1" d="M94.54667,49.46806l7.84711-2.85611c-.61591-1.73048-1.33091-3.41364-2.13829-5.04326l-7.57793,4.37514c.69655,1.12832,1.31866,2.30635,1.86911,3.52423Z"/>
        <path class="cls-1" d="M97.14849,59.16071h7.83396c-.07554-1.14741-.19253-2.28328-.34945-3.40656l-7.76106,1.36844c.11213.67298.20834,1.35126.27654,2.03812Z"/>
        <path class="cls-1" d="M35.09963,64.26748H11.72163c.06752,1.60774.21599,3.19434.44207,4.75605l22.98935-4.05357c-.02003-.23355-.03856-.46749-.05342-.70249Z"/>
        <path class="cls-1" d="M96.50764,55.28998l7.83238-1.38103c-.33306-1.84174-.77428-3.64573-1.31652-5.40551l-7.71088,2.80654c.48478,1.28791.88258,2.61739,1.19502,3.98Z"/>
        <path class="cls-1" d="M91.49848,44.17953l7.77357-4.48809c-.87627-1.58319-1.8405-3.1108-2.8885-4.57464l-7.27795,6.10691c.85719.93358,1.65357,1.92267,2.39287,2.95581Z"/>
        <path class="cls-1" d="M72.01344,31.69333l4.5351-12.45999c-1.61545-.68266-3.27854-1.27413-4.98076-1.77417l-2.43716,13.82213c.97518.09215,1.93594.23204,2.88282.41203Z"/>
        <path class="cls-1" d="M60.8422,31.60005v-15.96709c-.81467-.04229-1.63467-.06433-2.45984-.06433-.94393,0-1.88041.03133-2.81047.08655l2.89924,16.44248c.77832-.19789,1.5706-.35958,2.37107-.49761Z"/>
        <path class="cls-1" d="M77.56489,33.2996l5.98948-10.37412c-1.48416-.9514-3.02713-1.81867-4.61969-2.60039l-4.35714,11.97112c1.01802.28507,2.01436.62029,2.98735,1.00339Z"/>
        <path class="cls-1" d="M82.80809,35.96284l6.95157-8.28453c-1.31372-1.1922-2.69676-2.30912-4.14033-3.34717l-5.75955,9.97587c1.01601.4984,1.99826,1.0537,2.94831,1.65584Z"/>
        <path class="cls-1" d="M87.52215,39.62609l7.51131-6.30274c-1.10987-1.40313-2.29811-2.74132-3.55899-4.00727l-6.70345,7.98885c.96338.71896,1.87835,1.49789,2.75114,2.32116Z"/>
        <path class="cls-1" d="M35.16253,59.45446l-22.98159-4.05219c-.23619,1.60138-.39002,3.22934-.45931,4.87929h23.37799c.0175-.27668.03822-.55243.0629-.8271Z"/>
        <path class="cls-1" d="M37.51652,50.06565l-19.51682-11.26806c-.85157,1.46162-1.62574,2.9736-2.31759,4.5305l21.41286,7.79366c.13602-.35433.27309-.70814.42156-1.05611Z"/>
        <path class="cls-1" d="M35.96492,54.6868l-21.66119-7.88404c-.54958,1.56575-1.02,3.16863-1.40244,4.80565l22.84446,4.02801c.0691-.31806.14045-.63526.21916-.94963Z"/>
        <path class="cls-1" d="M55.59189,32.98227l-3.00736-17.05564c-1.75894.21779-3.48672.53498-5.17941.94276l6.16253,16.93134c.66376-.29418,1.33703-.57033,2.02424-.81847Z"/>
        <path class="cls-1" d="M39.81102,45.70173l-16.71564-14.02608c-1.12484,1.29607-2.17714,2.65638-3.15565,4.07167l19.19467,11.08205c.21811-.38091.4431-.75705.67662-1.12764Z"/>
        <path class="cls-1" d="M50.76885,35.21503l-6.37472-17.51434c-1.68125.52709-3.32067,1.14817-4.91413,1.8543l9.62764,16.67557c.542-.35573,1.09641-.69343,1.66122-1.01554Z"/>
        <path class="cls-1" d="M42.81043,41.69393l-13.44222-16.01981c-1.35881,1.07862-2.65633,2.23091-3.88614,3.45154l16.35701,13.72515c.31466-.39358.63835-.77924.97135-1.15688Z"/>
        <path class="cls-1" d="M46.47918,38.15423l-9.91931-17.18075c-1.54637.81876-3.04167,1.72066-4.47893,2.70191l13.09359,15.60432c.42402-.3873.85964-.76182,1.30464-1.12547Z"/>
      </g>
      <g>
        <path class="cls-1" d="M63.70684,0h-2.86464v15.63296c.96319.04997,1.91776.13208,2.86464.23956V0Z"/>
        <path class="cls-1" d="M42.43828,3.22319l-2.92588,1.06511,4.88172,13.41239c.98962-.31025,1.99425-.58635,3.011-.8313l-4.96685-13.6462Z"/>
        <path class="cls-1" d="M32.53938,7.53345l-2.80425,1.6192,6.82474,11.82083c.95435-.50531,1.92797-.97885,2.92012-1.41849l-6.94061-12.02154Z"/>
        <path class="cls-1" d="M74.43751,1.18378l-2.69824-.47554-2.83035,16.05174c.89684.20657,1.78259.44178,2.65886.69919l2.86973-16.27539Z"/>
        <path class="cls-1" d="M4.39451,39.21974l-1.27796,3.51122,11.18718,4.0718c.41435-1.18056.874-2.33963,1.37837-3.47466l-11.28759-4.10836Z"/>
        <path class="cls-1" d="M23.53328,13.48867l-2.57619,2.16147,8.41113,10.02399c.8791-.69781,1.78385-1.36456,2.71273-1.99874l-8.54767-10.18672Z"/>
        <path class="cls-1" d="M9.2462,29.57339l-1.80587,3.12775,10.55937,6.09646c.60786-1.04336,1.25563-2.06034,1.94003-3.05028l-10.69353-6.17393Z"/>
        <path class="cls-1" d="M94.4904,8.96598l-2.15724-1.24586-8.77879,15.20535c.70185.44991,1.38945.91988,2.06496,1.40566l8.87107-15.36515Z"/>
        <path class="cls-1" d="M121.13432,41.91164l-.68163-1.87259-18.0589,6.5729c.22235.62478.43354,1.25478.62971,1.89149l18.11082-6.5918Z"/>
        <path class="cls-1" d="M84.80266,4.20299l-2.45794-.89449-5.79619,15.92484c.8077.34132,1.60241.70705,2.38614,1.09174l5.86798-16.12209Z"/>
        <path class="cls-1" d="M104.98246,65.38833h19.56658v-6.22762h-19.56658c.06778,1.0295.10579,2.06715.10579,3.11381s-.03801,2.08431-.10579,3.11381Z"/>
        <path class="cls-1" d="M123.7652,52.38068l-.32435-1.83965-19.10083,3.36792c.11044.61076.20654,1.22641.29299,1.8452l19.13219-3.37346Z"/>
        <path class="cls-1" d="M103.21017,15.33002l-1.81262-1.52122-11.63788,13.86951c.58548.53131,1.15699,1.0777,1.7148,1.63778l11.7357-13.98607Z"/>
        <path class="cls-1" d="M1.28134,49.55955l-.67065,3.80262,11.57026,2.0401c.1891-1.28223.42927-2.54779.72036-3.79386l-11.61996-2.04886Z"/>
        <path class="cls-1" d="M110.70012,23.10377l-1.44098-1.71718-14.22569,11.93676c.46398.58658.91415,1.18455,1.3501,1.79346l14.31656-12.01304Z"/>
        <path class="cls-1" d="M116.73516,32.05413l-1.05877-1.83374-16.40433,9.47106c.34164.61728.66933,1.24325.98344,1.87724l16.47967-9.51456Z"/>
        <path class="cls-1" d="M.58914,71.06439l.71373,4.04757,11.62798-2.05029c-.31331-1.3251-.56943-2.67211-.76716-4.03815l-11.57456,2.04086Z"/>
        <path class="cls-1" d="M91.03873,117.57601l4.7461-2.74005-8.95865-15.51689c-1.45014,1.11513-2.96721,2.14713-4.54486,3.08863l8.75741,15.16832Z"/>
        <path class="cls-1" d="M81.05747,121.70932l5.03244-1.83205-5.92558-16.2803c-1.57792.83349-3.20862,1.58-4.88703,2.23154l5.78017,15.88081Z"/>
        <path class="cls-1" d="M70.51262,124.05703l5.15153-.908-2.89695-16.42944c-1.65415.53498-3.34762.9823-5.07678,1.33202l2.82219,16.00542Z"/>
        <path class="cls-1" d="M123.07322,76.09345l1.05962-6.01055-19.25361-3.39487c-.19224,2.05042-.51505,4.06275-.9637,6.02746l19.15769,3.37795Z"/>
        <path class="cls-1" d="M119.77105,86.38258l2.0449-5.61778-18.24597-6.641c-.50853,1.9446-1.14039,3.83905-1.88463,5.67612l18.08569,6.58267Z"/>
        <path class="cls-1" d="M114.74241,95.94658l2.92672-5.0696-16.61439-9.59235c-.79967,1.79233-1.70715,3.5259-2.71751,5.19039l16.40518,9.47156Z"/>
        <path class="cls-1" d="M108.13829,104.49826l3.68268-4.38881-14.44588-12.12152c-1.057,1.59964-2.20929,3.13049-3.44972,4.58427l14.21291,11.92607Z"/>
        <path class="cls-1" d="M20.48007,108.49853l3.53022,2.9622,8.59083-10.23814c-1.2853-.85252-2.52625-1.76633-3.71803-2.73842l-8.40302,10.01436Z"/>
        <path class="cls-1" d="M7.25345,91.52398l2.17963,3.7756,10.72046-6.18945c-.83552-1.18806-1.61788-2.41602-2.34188-3.68192l-10.55821,6.09578Z"/>
        <path class="cls-1" d="M3.03146,81.58411l1.44816,3.97916,11.30248-4.11377c-.57824-1.28266-1.09842-2.59694-1.56108-3.93806l-11.18956,4.07268Z"/>
        <path class="cls-1" d="M59.72135,124.54904h5.10634v-16.01337c-1.67563.23133-3.37887.37576-5.10634.42441v15.58895Z"/>
        <path class="cls-1" d="M49.00757,123.17056l4.90616.86492,2.66134-15.0932c-1.68389-.06411-3.34495-.21649-4.97856-.45429l-2.58894,14.68256Z"/>
        <path class="cls-1" d="M38.6931,119.96258l4.5645,1.66143,5.00343-13.74674c-1.59766-.35304-3.1651-.78627-4.69666-1.29831l-4.87127,13.38362Z"/>
        <path class="cls-1" d="M29.08792,115.02263l4.09867,2.36672,6.9824-12.09389c-1.46252-.61995-2.88583-1.31391-4.26758-2.07415l-6.81349,11.80132Z"/>
        <path class="cls-1" d="M52.93245.68628l-2.94361.51946,2.5957,14.72089c.98642-.12213,1.98282-.21182,2.98735-.27145l-2.63943-14.9689Z"/>
        <path class="cls-1" d="M13.12843,100.58668l2.88195,3.43436,9.82972-8.24811c-1.07368-1.04322-2.09722-2.13745-3.06701-3.27907l-9.64466,8.09282Z"/>
        <path class="cls-1" d="M15.69026,20.90937l-2.24171,2.67163,9.64683,8.09465c.76354-.87976,1.56031-1.72974,2.3867-2.54998l-9.79182-8.2163Z"/>
        <path class="cls-1" d="M88.53996,97.936l11.61721,13.84485,4.29337-3.60244-11.84865-14.12068c-1.27511,1.37222-2.63149,2.66739-4.06193,3.87827Z"/>
        <path class="cls-1" d="M11.72163,60.28156H0v3.98591h11.72163c-.02777-.66115-.04516-1.32497-.04516-1.99296s.01739-1.33181.04516-1.99296Z"/>
      </g>
    </g>
  </g>
  <path class="cls-1" d="M590.98376,21.03271c-1.70996-1.02588-3.07812-2.38184-4.10352-4.06934-1.02637-1.68652-1.53906-3.57959-1.53906-5.67725,0-2.05225.5127-3.93311,1.53906-5.64307,1.02539-1.70996,2.39355-3.07812,4.10352-4.104s3.56738-1.53906,5.5752-1.53906c2.09668,0,4.00098.51318,5.71094,1.53906s3.06641,2.39404,4.07031,4.104c1.00195,1.70996,1.50391,3.56836,1.50391,5.57471,0,2.09766-.49023,4.0127-1.46973,5.74561-.98145,1.7334-2.33789,3.10107-4.07031,4.10352-1.7334,1.00391-3.625,1.50488-5.67676,1.50488-2.05273,0-3.93359-.5127-5.64355-1.53906ZM601.07262,19.22021c1.36816-.8208,2.46289-1.9375,3.2832-3.35156.82129-1.4126,1.23145-2.94092,1.23145-4.58252s-.41016-3.15723-1.23145-4.54883c-.82031-1.39062-1.91504-2.49658-3.2832-3.31738-1.36719-.8208-2.87207-1.23096-4.51367-1.23096-1.59668,0-3.08984.41016-4.48047,1.23096-1.3916.8208-2.48633,1.92676-3.2832,3.31738-.79883,1.3916-1.19727,2.90723-1.19727,4.54883s.39844,3.16992,1.19727,4.58252c.79688,1.41406,1.8916,2.53076,3.2832,3.35156,1.39062.8208,2.88379,1.23145,4.48047,1.23145,1.6416,0,3.14648-.41064,4.51367-1.23145ZM592.24938,5.33496h4.71973c1.5498,0,2.75879.34229,3.625,1.02637.86621.68359,1.2998,1.59668,1.2998,2.73584,0,.95752-.25098,1.74414-.75293,2.35986s-1.20801,1.0376-2.12012,1.26514l3.07812,3.83057h-2.87305l-2.80371-3.55664h-1.70996v3.55664h-2.46289V5.33496ZM598.81579,10.63623c.45508-.34229.68359-.83154.68359-1.4707,0-.59229-.22852-1.06006-.68359-1.40234-.45605-.3418-1.09473-.5127-1.91504-.5127h-2.18848v3.89844h2.18848c.82031,0,1.45898-.1709,1.91504-.5127Z"/>
</svg>