<svg xmlns="http://www.w3.org/2000/svg" width="80" height="50" viewBox="0 0 80 50" fill="none"><path d="M12.3941 4.3374H6.3374V10.6294H12.3941V4.3374Z" fill="#4B78B6"></path><path d="M49.0927 4.33744V15.9687L55.2493 9.81205V9.74632H55.6761L55.7281 9.69435L55.7801 9.74632H73.6625V4.33744H49.0927Z" fill="#4B78B6"></path><path d="M35.6118 15.5537C35.6118 12.2766 32.6921 10.4295 29.6532 10.4295C26.4953 10.4295 23.814 12.8724 23.8139 16.4475L17.5576 15.2558C18.0343 8.99946 23.9925 4.94775 29.8319 4.94775C36.1478 4.94775 42.0466 9.05905 42.0466 15.5537C42.0466 19.2479 40.1399 23.24 37.8757 26.4576C35.9003 29.2592 33.6865 31.9956 31.3913 34.6412L20.8062 45.2265H18.3324V39.8639C22.9204 35.0377 28.4617 28.9599 32.1559 23.5975C33.705 21.3333 35.6118 18.2349 35.6118 15.5537Z" fill="white"></path><path d="M12.3122 15.4719H12.3941V45.2266H6.3374V21.4467L12.3122 15.4719Z" fill="white"></path><path d="M29.3716 45.2268H43.8342V39.7451H34.8532L29.3716 45.2268Z" fill="white"></path><path d="M49.0928 24.7839L55.2495 18.6272V21.7502H73.6626V27.1591H55.2495V39.8179H73.6626V45.2268H49.0928V24.7839Z" fill="white"></path></svg>