<svg xmlns="http://www.w3.org/2000/svg" width="344.199" height="60.993" viewBox="0 0 344.199 60.993">
  <g>
    <g>
      <g>
        <path d="M90.676.256V5.635H85.3V36.118h-5.38V5.635H74.538V.256ZM106.3,5.635H98.616v9.324h7.172v5.38H98.616v10.4H106.3v5.38H93.236V.256H106.3ZM123.717,16.65A5.619,5.619,0,0,1,121,21.773l3.484,14.345h-5.891l-2.408-13.576h-1.434V36.118h-5.38V.256h8.453a5.8,5.8,0,0,1,5.892,5.892ZM114.752,5.635V17.162h3.073a.46.46,0,0,0,.513-.512V6.148a.461.461,0,0,0-.513-.513Zm25.614,0h-7.685v9.324h7.173v5.38h-7.173v10.4h7.685v5.38H127.3V.256h13.064Zm18.7,30.483h-5.892L148.817,16.65V36.118h-5.379V.256h5.891l4.355,19.468V.256h5.38Zm12.55-22.03v-8.2a.46.46,0,0,0-.512-.512H168.54a.46.46,0,0,0-.512.512V30.482a.46.46,0,0,0,.512.513H171.1a.46.46,0,0,0,.512-.513V21.773h5.38v8.709a5.514,5.514,0,0,1-5.892,5.892H168.54a5.514,5.514,0,0,1-5.891-5.892V5.891A5.8,5.8,0,0,1,168.54,0H171.1a5.8,5.8,0,0,1,5.892,5.891v8.2Zm22.029-8.453h-7.685v9.324h7.172v5.38h-7.172v10.4h7.685v5.38H180.579V.256h13.064Z" fill="#d63434"/>
        <path d="M212.8,14.088v-8.2a.46.46,0,0,0-.512-.512h-2.562a.46.46,0,0,0-.512.512V30.482a.46.46,0,0,0,.512.513h2.562a.46.46,0,0,0,.512-.513V21.773h5.379v8.709a5.514,5.514,0,0,1-5.891,5.892h-2.562a5.514,5.514,0,0,1-5.891-5.892V5.891A5.8,5.8,0,0,1,209.727,0h2.562a5.8,5.8,0,0,1,5.891,5.891v8.2Z"/>
        <path d="M236.11,16.65a5.619,5.619,0,0,1-2.716,5.123l3.484,14.345h-5.892l-2.408-13.576h-1.434V36.118h-5.379V.256h8.453a5.8,5.8,0,0,1,5.892,5.892ZM227.144,5.635V17.162h3.074a.459.459,0,0,0,.512-.512V6.148a.46.46,0,0,0-.512-.513Z"/>
        <path d="M254.04.256V30.482a5.514,5.514,0,0,1-5.892,5.892h-2.562a5.514,5.514,0,0,1-5.891-5.892V.256h5.379V30.482a.46.46,0,0,0,.512.513h2.562a.46.46,0,0,0,.512-.513V.256Z"/>
        <path d="M272.737.256V5.635h-5.379V36.118h-5.379V5.635H256.6V.256Z"/>
        <path d="M284.263,14.088v-8.2a.46.46,0,0,0-.512-.512h-2.562a.46.46,0,0,0-.512.512V30.482a.46.46,0,0,0,.512.513h2.562a.46.46,0,0,0,.512-.513V21.773h5.379v8.709a5.514,5.514,0,0,1-5.891,5.892h-2.562a5.514,5.514,0,0,1-5.891-5.892V5.891A5.8,5.8,0,0,1,281.189,0h2.562a5.8,5.8,0,0,1,5.891,5.891v8.2Z"/>
        <path d="M309.364,36.118h-5.379V20.339h-5.379V36.118h-5.379V.256h5.379v14.7h5.379V.256h5.379Z"/>
        <path d="M326.014,5.635h-7.685v9.324H325.5v5.38h-7.173v10.4h7.685v5.38H312.95V.256h13.064Z" fill="#140206"/>
        <path d="M343.431,16.65a5.619,5.619,0,0,1-2.716,5.123L344.2,36.118h-5.891L335.9,22.542h-1.435V36.118h-5.379V.256h8.453a5.8,5.8,0,0,1,5.892,5.892ZM334.465,5.635V17.162h3.074a.46.46,0,0,0,.513-.512V6.148a.461.461,0,0,0-.513-.513Z"/>
      </g>
      <g>
        <path d="M48.987.289v11H37.982V42.882h-11V11.293h-11v-11Z" fill="#d63434"/>
        <path d="M19.24,42.651H12.053A.94.94,0,0,0,11.005,43.7v5.24a.939.939,0,0,0,1.048,1.047H52.906a.939.939,0,0,0,1.048-1.047V43.7a.941.941,0,0,0-1.048-1.049H45.719V31.646h7.187c7.337,0,12.053,4.717,12.053,12.054v5.24c0,7.337-4.716,12.053-12.053,12.053H12.053A11.858,11.858,0,0,1,0,48.94V43.7A11.859,11.859,0,0,1,12.053,31.646H19.24Z" fill="#140206"/>
      </g>
    </g>
    <path d="M227.456,60.813h-2.362V49.119h8v2.068h-5.636V54.1h4.707v2.068h-4.707Zm16.937-1.482a3.808,3.808,0,0,1-3.209,1.662,3.857,3.857,0,0,1-3.225-1.662,7.246,7.246,0,0,1-1.222-4.365,7.162,7.162,0,0,1,1.222-4.349,3.832,3.832,0,0,1,3.225-1.678,3.785,3.785,0,0,1,3.209,1.678,7.067,7.067,0,0,1,1.238,4.349A7.149,7.149,0,0,1,244.393,59.331Zm-3.209-8.29c-1.352,0-2.117,1.433-2.117,3.925s.765,3.925,2.117,3.925,2.118-1.433,2.118-3.925S242.536,51.041,241.184,51.041Zm8.271,5.326V49.119h2.362v7.15c0,1.743.57,2.557,1.743,2.557s1.743-.814,1.743-2.557v-7.15h2.362v7.248c0,3-1.45,4.626-4.105,4.626S249.455,59.364,249.455,56.367Zm20.488-7.248V60.813h-2.215l-3.567-7.639v7.639h-2.232V49.119h2.379l3.4,7.248V49.119Zm4.362,11.694V49.119h3a5.178,5.178,0,0,1,4.006,1.563,6.036,6.036,0,0,1,1.45,4.284,6.1,6.1,0,0,1-1.45,4.3,5.225,5.225,0,0,1-4.006,1.547Zm2.346-2.052h.635c2.02,0,3.095-1.336,3.095-3.8,0-2.476-1.075-3.8-3.111-3.8h-.619Zm12.6-9.642h2.85l3.274,11.694h-2.394l-.636-2.443h-3.387l-.636,2.443h-2.312Zm1.4,2.8L289.5,56.334h2.313Zm16.92-.733h-3.307v9.626h-2.41V51.187h-3.307V49.119h9.024Zm12.051,7.558v2.068h-8.372V58.745h2.98V51.187h-2.98V49.119h8.372v2.068h-2.981v7.558Zm11.4.586a3.805,3.805,0,0,1-3.208,1.662,3.854,3.854,0,0,1-3.225-1.662,7.246,7.246,0,0,1-1.222-4.365,7.162,7.162,0,0,1,1.222-4.349,3.83,3.83,0,0,1,3.225-1.678,3.782,3.782,0,0,1,3.208,1.678,7.06,7.06,0,0,1,1.238,4.349A7.142,7.142,0,0,1,331.025,59.331Zm-3.208-8.29c-1.353,0-2.118,1.433-2.118,3.925s.765,3.925,2.118,3.925,2.117-1.433,2.117-3.925S329.168,51.041,327.817,51.041ZM344.2,49.119V60.813h-2.215l-3.567-7.639v7.639h-2.232V49.119h2.379l3.4,7.248V49.119Z" fill="#847674"/>
  </g>
</svg>
